# xmcd CD database file
#
# Track frame offsets:
#	150
#	21060
#	37673
#	51049
#	64448
#	78448
#	89507
#	103596
#	116804
#	131363
#	144666
#	155682
#	169158
#	182826
#	197400
#	212099
#	227197
#	241611
#	255955
#	269372
#	285548
#
# Disc length: 3993 seconds
#
# Revision: 0
# Processed by: cddbd v1.5.1PL0 Copyright (c) Steve Scherf et al.
# Submitted via: CDex 1.51
#
DISCID=210f9715
DTITLE=Hawkins, Coleman  - Portrait
DYEAR=2002
DGENRE=Jazz
TTITLE0=Perdido
TTITLE1=Sweethearts On Parade
TTITLE2=And So To Sleep Again
TTITLE3=(It's No) Sin
TTITLE4=Spellbound
TTITLE5=Carioca
TTITLE6=Lost In A Fog
TTITLE7=Midnight Sun
TTITLE8=If I Could be With You (One Hour Tonight)
TTITLE9=I Can't Get Started
TTITLE10=Ruby
TTITLE11=Where Is Your Heart?
TTITLE12=It's Only A Papermoon
TTITLE13=Sih-Sah
TTITLE14=Bean's Talking Again
TTITLE15=Bah-U-Bah
TTITLE16=I Surrender Dear
TTITLE17=Sophisticated Lady
TTITLE18=My Blue Heaven
TTITLE19=Honeysuckle Rose
TTITLE20=Organ Grinder's Swing
EXTD=YEAR: 2002
EXTT0=
EXTT1=
EXTT2=
EXTT3=
EXTT4=
EXTT5=
EXTT6=
EXTT7=
EXTT8=
EXTT9=
EXTT10=
EXTT11=
EXTT12=
EXTT13=
EXTT14=
EXTT15=
EXTT16=
EXTT17=
EXTT18=
EXTT19=
EXTT20=
PLAYORDER=
